<svg width="40" height="40" viewBox="0 0 40 40" fill="none" xmlns="http://www.w3.org/2000/svg">
<path d="M20 40C31.0457 40 40 31.0457 40 20C40 8.9543 31.0457 0 20 0C8.9543 0 0 8.9543 0 20C0 31.0457 8.9543 40 20 40Z" fill="black"/>
<path d="M26.6789 26.9999C26.5502 26.9999 26.4321 26.8851 26.3815 26.6965C26.3444 26.5597 25.4166 23.3144 21.9477 22.6716C21.2251 22.5348 20.3598 22.4647 19.3088 22.4524V26.4975C19.3088 26.6842 19.2442 26.8535 19.1379 26.9429C19.0322 27.0289 18.9056 27.0166 18.8072 26.914L12.1428 19.9182C12.0529 19.8244 12 19.6666 12 19.5008C12 19.3333 12.0529 19.1808 12.1428 19.0825L18.8101 12.0859C18.9085 11.9798 19.0339 11.9728 19.1407 12.0605C19.2475 12.1499 19.3111 12.3191 19.3111 12.5007V16.2651C20.7607 16.5598 27 18.3083 27 26.5019C27 26.7395 26.8926 26.9473 26.7419 26.9947C26.7211 26.9999 26.6992 26.9999 26.6789 26.9999Z" fill="white"/>
</svg>
