<svg width="64" height="64" viewBox="0 0 64 64" fill="none" xmlns="http://www.w3.org/2000/svg">
<path d="M32 7.17383C18.311 7.17383 7.17395 18.3109 7.17395 31.9999C7.17395 45.6889 18.311 56.8259 32 56.8259C45.689 56.8259 56.826 45.6889 56.826 31.9999C56.826 18.3109 45.689 7.17383 32 7.17383ZM38.174 32.8739H34.1349C34.1349 39.3269 34.1349 47.2718 34.1349 47.2718H28.15C28.15 47.2718 28.15 39.4039 28.15 32.8739H25.305V27.7858H28.15V24.4949C28.15 22.1379 29.2699 18.4549 34.1899 18.4549L38.623 18.4719V23.4108C38.623 23.4108 35.9279 23.4108 35.4039 23.4108C34.8799 23.4108 34.136 23.6729 34.136 24.7969V27.7869H38.6959L38.174 32.8739Z" fill="#432818"/>
</svg>
