<svg width="64" height="64" viewBox="0 0 64 64" fill="none" xmlns="http://www.w3.org/2000/svg">
<path d="M31.9989 36.9699C34.7379 36.9699 36.9709 34.7409 36.9709 31.9999C36.9709 30.9179 36.6169 29.9189 36.0299 29.1029C35.1259 27.8509 33.6579 27.0299 31.9999 27.0299C30.3409 27.0299 28.8739 27.8499 27.9689 29.1019C27.3809 29.9179 27.0299 30.9169 27.0289 31.9989C27.0279 34.7399 29.2589 36.9699 31.9989 36.9699Z" fill="#432818"/>
<path d="M42.852 25.9199V21.7539V21.1339L42.228 21.1359L38.064 21.1489L38.081 25.9359L42.852 25.9199Z" fill="#432818"/>
<path d="M32 7.17395C18.311 7.17395 7.17395 18.311 7.17395 32C7.17395 45.689 18.311 56.826 32 56.826C45.689 56.826 56.826 45.689 56.826 32C56.826 18.311 45.689 7.17395 32 7.17395ZM46.1189 29.103V40.6629C46.1189 43.6739 43.6709 46.1209 40.6619 46.1209H23.3379C20.3279 46.1209 17.881 43.6739 17.881 40.6629V29.103V23.339C17.881 20.329 20.3279 17.882 23.3379 17.882H40.6609C43.6709 17.882 46.1189 20.329 46.1189 23.339V29.103Z" fill="#432818"/>
<path d="M39.722 31.9999C39.722 36.2569 36.259 39.7229 32 39.7229C27.741 39.7229 24.278 36.2569 24.278 31.9999C24.278 30.9759 24.482 29.9969 24.846 29.1029H20.631V40.6629C20.631 42.1569 21.844 43.3669 23.337 43.3669H40.66C42.153 43.3669 43.366 42.1569 43.366 40.6629V29.1029H39.15C39.515 29.9969 39.722 30.9759 39.722 31.9999Z" fill="#432818"/>
</svg>
