<svg width="256" height="256" viewBox="0 0 256 256" fill="none" xmlns="http://www.w3.org/2000/svg">
<path d="M196.096 154.445C194.984 154.445 193.861 154.115 192.883 153.428C190.351 151.647 189.741 148.155 191.519 145.625L219.858 105.297L191.519 64.968C189.741 62.436 190.351 58.9434 192.883 57.1649C195.415 55.3808 198.908 55.997 200.686 58.5261L231.288 102.076C232.643 104.008 232.643 106.585 231.288 108.518L200.686 152.064C199.597 153.616 197.86 154.445 196.096 154.445Z" fill="#E0E0E0"/>
<mask id="path-2-inside-1_0_1" fill="white">
<path d="M163.551 86.2457C166.643 86.2457 169.152 83.7361 169.152 80.6441V7.56559C169.152 4.47351 166.643 1.96399 163.551 1.96399H29.297C29.2606 1.96399 29.2298 1.97239 29.1934 1.97519C29.0897 1.97519 28.9861 1.9976 28.8825 2.006C28.5408 2.03121 28.2103 2.08162 27.891 2.16565C27.7622 2.19646 27.6417 2.23847 27.5185 2.28048C27.202 2.38691 26.8995 2.51855 26.611 2.67819C26.541 2.7174 26.4626 2.73141 26.3954 2.77342C26.3618 2.79303 26.3394 2.82383 26.3086 2.84344C25.9444 3.07591 25.6027 3.33918 25.3003 3.64727C25.247 3.70049 25.2078 3.7649 25.1574 3.81812C24.9194 4.08419 24.7065 4.36988 24.5188 4.67796C24.4516 4.79 24.3928 4.90483 24.334 5.01966C24.1883 5.30254 24.0707 5.59663 23.9727 5.90471C23.9363 6.02235 23.8943 6.13438 23.8663 6.25481C23.7626 6.67774 23.6954 7.11186 23.6954 7.56559V203.025C23.6954 203.501 23.7738 203.958 23.8859 204.397C23.9167 204.518 23.9559 204.63 23.9951 204.745C24.1071 205.089 24.25 205.414 24.4208 205.725C24.474 205.817 24.516 205.915 24.5721 206.005C24.8129 206.383 25.0902 206.733 25.4123 207.044C25.4739 207.103 25.5439 207.148 25.6084 207.207C25.894 207.459 26.2077 207.68 26.541 207.87C26.5998 207.904 26.6446 207.954 26.7035 207.988L113.573 253.397C114.385 253.826 115.276 254.036 116.167 254.036C117.172 254.036 118.178 253.764 119.068 253.227C120.743 252.213 121.768 250.392 121.768 248.434V208.627H163.551C166.643 208.627 169.152 206.117 169.152 203.025V128C169.152 124.908 166.643 122.398 163.551 122.398C160.458 122.398 157.949 124.908 157.949 128V197.423H121.768V52.975C121.768 50.8884 120.609 48.9754 118.76 48.0119L52.1039 13.1672H157.949V80.6441C157.949 83.7361 160.458 86.2457 163.551 86.2457ZM110.565 239.186L34.8986 199.633V16.8138L110.565 56.3667V239.186Z"/>
</mask>
<path d="M163.551 86.2457C166.643 86.2457 169.152 83.7361 169.152 80.6441V7.56559C169.152 4.47351 166.643 1.96399 163.551 1.96399H29.297C29.2606 1.96399 29.2298 1.97239 29.1934 1.97519C29.0897 1.97519 28.9861 1.9976 28.8825 2.006C28.5408 2.03121 28.2103 2.08162 27.891 2.16565C27.7622 2.19646 27.6417 2.23847 27.5185 2.28048C27.202 2.38691 26.8995 2.51855 26.611 2.67819C26.541 2.7174 26.4626 2.73141 26.3954 2.77342C26.3618 2.79303 26.3394 2.82383 26.3086 2.84344C25.9444 3.07591 25.6027 3.33918 25.3003 3.64727C25.247 3.70049 25.2078 3.7649 25.1574 3.81812C24.9194 4.08419 24.7065 4.36988 24.5188 4.67796C24.4516 4.79 24.3928 4.90483 24.334 5.01966C24.1883 5.30254 24.0707 5.59663 23.9727 5.90471C23.9363 6.02235 23.8943 6.13438 23.8663 6.25481C23.7626 6.67774 23.6954 7.11186 23.6954 7.56559V203.025C23.6954 203.501 23.7738 203.958 23.8859 204.397C23.9167 204.518 23.9559 204.63 23.9951 204.745C24.1071 205.089 24.25 205.414 24.4208 205.725C24.474 205.817 24.516 205.915 24.5721 206.005C24.8129 206.383 25.0902 206.733 25.4123 207.044C25.4739 207.103 25.5439 207.148 25.6084 207.207C25.894 207.459 26.2077 207.68 26.541 207.87C26.5998 207.904 26.6446 207.954 26.7035 207.988L113.573 253.397C114.385 253.826 115.276 254.036 116.167 254.036C117.172 254.036 118.178 253.764 119.068 253.227C120.743 252.213 121.768 250.392 121.768 248.434V208.627H163.551C166.643 208.627 169.152 206.117 169.152 203.025V128C169.152 124.908 166.643 122.398 163.551 122.398C160.458 122.398 157.949 124.908 157.949 128V197.423H121.768V52.975C121.768 50.8884 120.609 48.9754 118.76 48.0119L52.1039 13.1672H157.949V80.6441C157.949 83.7361 160.458 86.2457 163.551 86.2457ZM110.565 239.186L34.8986 199.633V16.8138L110.565 56.3667V239.186Z" fill="#E0E0E0"/>
<path d="M29.1934 1.97519V137.975H34.4164L39.6241 137.575L29.1934 1.97519ZM28.8825 2.006L38.8881 137.637L39.3809 137.601L39.8734 137.561L28.8825 2.006ZM27.891 2.16565L59.521 134.436L61.0158 134.079L62.5021 133.688L27.891 2.16565ZM27.5185 2.28048L70.8675 131.187L71.135 131.097L71.4021 131.006L27.5185 2.28048ZM26.611 2.67819L-39.2401 -116.316L-39.54 -116.15L-39.839 -115.983L26.611 2.67819ZM26.3954 2.77342L94.9218 120.247L96.7149 119.201L98.4752 118.101L26.3954 2.77342ZM26.3086 2.84344L-46.7065 -111.895L-46.7921 -111.84L-46.8776 -111.785L26.3086 2.84344ZM25.3003 3.64727L121.467 99.8138L121.908 99.3727L122.345 98.9275L25.3003 3.64727ZM25.1574 3.81812L-73.5721 -89.7152L-74.9041 -88.3092L-76.1954 -86.866L25.1574 3.81812ZM24.5188 4.67796L-91.6318 -66.0683L-91.8673 -65.6817L-92.1002 -65.2935L24.5188 4.67796ZM24.334 5.01966L145.249 67.2731L145.315 67.146L145.38 67.0188L24.334 5.01966ZM23.9727 5.90471L-105.625 -35.331L-105.788 -34.8203L-105.946 -34.3083L23.9727 5.90471ZM23.8663 6.25481L155.959 38.6218L156.15 37.8423L156.331 37.0606L23.8663 6.25481ZM23.8859 204.397L-107.904 237.974L-107.888 238.039L-107.871 238.103L23.8859 204.397ZM23.9951 204.745L153.328 162.685L153.02 161.739L152.699 160.797L23.9951 204.745ZM24.4208 205.725L-94.7672 271.225L-94.1153 272.411L-93.4398 273.584L24.4208 205.725ZM24.5721 206.005L-90.7557 278.085L-90.4454 278.581L-90.1309 279.075L24.5721 206.005ZM25.4123 207.044L-69.0374 304.897L-68.7656 305.16L-68.4924 305.421L25.4123 207.044ZM25.6084 207.207L-66.0923 307.641L-65.2388 308.42L-64.3722 309.185L25.6084 207.207ZM26.541 207.87L94.0159 89.7893L26.541 207.87ZM26.7035 207.988L-40.7714 326.069L-38.5583 327.334L-36.2994 328.515L26.7035 207.988ZM113.573 253.397L177.034 133.112L176.805 132.991L176.576 132.871L113.573 253.397ZM119.068 253.227L189.362 369.651L189.43 369.611L189.497 369.57L119.068 253.227ZM121.768 208.627V72.6266H-14.2318V208.627H121.768ZM157.949 197.423V333.423H293.949V197.423H157.949ZM121.768 197.423H-14.2318V333.423H121.768V197.423ZM118.76 48.0119L55.7551 168.537L55.8281 168.575L55.9011 168.614L118.76 48.0119ZM52.1039 13.1672V-122.833L-10.9011 133.693L52.1039 13.1672ZM157.949 13.1672H293.949V-122.833H157.949V13.1672ZM110.565 239.186L47.5625 359.713L246.565 463.737V239.186H110.565ZM34.8986 199.633H-101.101V282.002L-28.104 320.16L34.8986 199.633ZM34.8986 16.8138L97.9012 -103.713L-101.101 -207.737V16.8138H34.8986ZM110.565 56.3667H246.565V-26.0022L173.568 -64.1599L110.565 56.3667ZM163.551 222.246C241.754 222.246 305.152 158.847 305.152 80.6441H33.1522C33.1522 8.62566 91.5317 -49.7543 163.551 -49.7543V222.246ZM305.152 80.6441V7.56559H33.1522V80.6441H305.152ZM305.152 7.56559C305.152 -70.637 241.754 -134.036 163.551 -134.036V137.964C91.5317 137.964 33.1522 79.584 33.1522 7.56559H305.152ZM163.551 -134.036H29.297V137.964H163.551V-134.036ZM29.297 -134.036C19.0419 -134.036 11.0481 -132.816 9.61918 -132.608C9.34378 -132.568 8.83025 -132.491 9.19434 -132.545C9.3261 -132.565 9.91079 -132.652 10.6602 -132.755C12.1936 -132.967 15.0956 -133.342 18.7627 -133.624L39.6241 137.575C43.3093 137.291 46.2288 136.914 47.7794 136.7C48.5374 136.595 49.1306 136.507 49.2708 136.486C49.6433 136.431 49.1382 136.506 48.8712 136.545C47.4759 136.748 39.5157 137.964 29.297 137.964V-134.036ZM29.1934 -134.025C24.3275 -134.025 20.2806 -133.764 17.4427 -133.519C14.6723 -133.281 12.5104 -133.007 11.7206 -132.906C11.3313 -132.856 10.9697 -132.807 11.0659 -132.82C11.0664 -132.82 11.1624 -132.833 11.2843 -132.849C11.4131 -132.866 11.6166 -132.892 11.8671 -132.924C12.7642 -133.038 15.0084 -133.315 17.8915 -133.549L39.8734 137.561C42.8084 137.323 45.1044 137.039 46.0533 136.919C46.3168 136.886 46.5332 136.858 46.675 136.839C46.8098 136.821 46.9188 136.807 46.9323 136.805C47.0543 136.789 46.7187 136.834 46.3552 136.88C45.6173 136.975 43.5072 137.243 40.7886 137.477C38.0025 137.717 34.0074 137.975 29.1934 137.975V-134.025ZM18.8769 -133.625C11.7209 -133.098 2.9893 -131.912 -6.72008 -129.356L62.5021 133.688C53.4313 136.075 45.3607 137.16 38.8881 137.637L18.8769 -133.625ZM-3.73895 -130.105C-8.03466 -129.078 -11.4605 -128.038 -13.5329 -127.379C-15.2696 -126.826 -16.9987 -126.229 -16.3652 -126.445L71.4021 131.006C72.1589 130.748 70.5517 131.303 68.9382 131.817C66.989 132.437 63.6878 133.44 59.521 134.436L-3.73895 -130.105ZM-15.8306 -126.626C-23.4917 -124.05 -31.3706 -120.671 -39.2401 -116.316L92.4622 121.672C85.1697 125.708 77.8957 128.823 70.8675 131.187L-15.8306 -126.626ZM-39.839 -115.983C-33.5227 -119.52 -28.1779 -121.842 -25.0422 -123.128C-23.4563 -123.778 -22.1863 -124.263 -21.5293 -124.511C-21.0683 -124.685 -20.355 -124.949 -20.8507 -124.765C-21.023 -124.701 -21.9187 -124.369 -23.0487 -123.928C-24.2248 -123.468 -25.9779 -122.764 -28.0793 -121.844C-32.256 -120.016 -38.5228 -117.03 -45.6845 -112.554L98.4752 118.101C91.3472 122.556 85.1154 125.525 80.9745 127.337C78.891 128.249 77.156 128.945 75.9981 129.398C74.8863 129.833 74.009 130.158 73.855 130.215C73.8037 130.234 73.7604 130.25 73.7691 130.247C73.7691 130.247 73.7701 130.246 73.771 130.246C73.7721 130.246 73.7737 130.245 73.7758 130.244C73.7797 130.243 73.786 130.24 73.7936 130.238C73.8087 130.232 73.8331 130.223 73.8631 130.212C73.9708 130.172 74.2429 130.071 74.5888 129.94C75.2642 129.685 76.5526 129.193 78.1567 128.535C81.3289 127.234 86.7097 124.896 93.0611 121.339L-39.839 -115.983ZM-42.1311 -114.701C-49.8182 -110.216 -55.6802 -105.782 -59.509 -102.664C-61.4258 -101.103 -62.964 -99.7626 -63.9942 -98.8469C-64.9836 -97.9674 -65.7473 -97.2613 -65.8973 -97.1229C-65.9238 -97.0984 -65.9454 -97.0785 -65.9589 -97.066C-65.9658 -97.0596 -65.9714 -97.0544 -65.975 -97.0511C-65.9785 -97.0479 -65.9813 -97.0453 -65.9814 -97.0452C-65.9903 -97.0369 -65.9525 -97.0719 -65.909 -97.112C-65.822 -97.1924 -65.5891 -97.4073 -65.2892 -97.6807C-64.7076 -98.211 -63.5581 -99.2509 -62.0717 -100.522C-59.1564 -103.016 -53.8772 -107.331 -46.7065 -111.895L99.3236 117.581C106.51 113.008 111.803 108.682 114.733 106.176C116.226 104.899 117.382 103.853 117.971 103.316C118.274 103.04 118.51 102.822 118.601 102.738C118.646 102.697 118.685 102.66 118.678 102.667C118.678 102.667 118.678 102.667 118.678 102.667C118.678 102.667 118.677 102.668 118.677 102.668C118.676 102.669 118.675 102.67 118.673 102.671C118.67 102.674 118.665 102.679 118.658 102.685C118.645 102.697 118.625 102.716 118.599 102.74C118.456 102.872 117.699 103.572 116.717 104.445C115.694 105.354 114.162 106.688 112.253 108.243C108.439 111.35 102.592 115.773 94.9218 120.247L-42.1311 -114.701ZM-46.8776 -111.785C-53.8707 -107.321 -62.7347 -100.81 -71.7444 -91.633L122.345 98.9275C113.94 107.488 105.76 113.472 99.4947 117.472L-46.8776 -111.785ZM-70.8663 -92.5193C-74.6207 -88.7648 -77.4663 -85.4779 -79.2681 -83.313C-80.1823 -82.2146 -80.919 -81.2943 -81.4116 -80.6716C-81.8858 -80.0723 -82.2538 -79.5963 -82.3311 -79.4964C-82.3445 -79.4791 -82.3555 -79.4649 -82.3628 -79.4555C-82.3696 -79.4466 -82.3753 -79.4392 -82.3761 -79.4383C-82.3822 -79.4303 -82.3658 -79.4515 -82.3475 -79.4753C-82.3102 -79.5234 -82.2046 -79.6599 -82.0681 -79.8351C-81.8031 -80.1752 -81.2751 -80.8497 -80.5947 -81.692C-79.2707 -83.3308 -76.8448 -86.2607 -73.5721 -89.7152L123.887 97.3514C127.185 93.8703 129.635 90.9124 130.982 89.2449C131.674 88.3883 132.213 87.6993 132.49 87.3445C132.632 87.162 132.743 87.0182 132.786 86.9627C132.798 86.9471 132.808 86.9344 132.814 86.9268C132.817 86.9229 132.819 86.9197 132.821 86.9178C132.821 86.9168 132.822 86.916 132.823 86.9155C132.823 86.9153 132.823 86.915 132.823 86.9149C132.823 86.9148 132.823 86.9147 132.823 86.9147C132.826 86.911 132.808 86.9339 132.787 86.9618C132.721 87.047 132.364 87.5082 131.902 88.093C131.42 88.701 130.696 89.6068 129.793 90.6909C128.015 92.827 125.195 96.086 121.467 99.8138L-70.8663 -92.5193ZM-76.1954 -86.866C-81.879 -80.5137 -87.0642 -73.5673 -91.6318 -66.0683L140.669 75.4242C136.477 82.307 131.718 88.6821 126.51 94.5022L-76.1954 -86.866ZM-92.1002 -65.2935C-93.6514 -62.7081 -94.83 -60.5513 -95.5561 -59.1909C-95.9243 -58.5011 -96.2193 -57.9346 -96.4036 -57.5784C-96.4975 -57.397 -96.5744 -57.2474 -96.6239 -57.151C-96.6698 -57.0618 -96.71 -56.9832 -96.7119 -56.9795L145.38 67.0188C145.495 66.7932 145.004 67.7599 144.403 68.8865C143.737 70.1327 142.622 72.176 141.138 74.6494L-92.1002 -65.2935ZM-96.5813 -57.2338C-100.68 -49.2733 -103.564 -41.8094 -105.625 -35.331L153.571 47.1404C151.705 53.0027 149.056 59.8784 145.249 67.2731L-96.5813 -57.2338ZM-105.946 -34.3083C-105.599 -35.4311 -105.311 -36.3034 -105.271 -36.4276C-105.126 -36.8689 -105.382 -36.0928 -105.568 -35.5126C-106.02 -34.1036 -107.341 -29.9581 -108.599 -24.551L156.331 37.0606C155.102 42.3473 153.816 46.3766 153.401 47.6701C153.233 48.1924 152.996 48.9109 153.16 48.4118C153.22 48.2298 153.526 47.2994 153.892 46.1177L-105.946 -34.3083ZM-108.226 -26.1122C-110.211 -18.0123 -112.305 -6.43625 -112.305 7.56559H159.695C159.695 20.66 157.736 31.3678 155.959 38.6218L-108.226 -26.1122ZM-112.305 7.56559V203.025H159.695V7.56559H-112.305ZM-112.305 203.025C-112.305 218.377 -109.773 230.64 -107.904 237.974L155.676 170.82C157.32 177.275 159.695 188.625 159.695 203.025H-112.305ZM-107.871 238.103C-106.941 241.739 -106.039 244.643 -105.473 246.394C-105.012 247.82 -104.491 249.329 -104.708 248.692L152.699 160.797C152.442 160.046 152.924 161.441 153.348 162.753C153.876 164.388 154.744 167.176 155.643 170.692L-107.871 238.103ZM-105.338 246.804C-102.455 255.67 -98.8361 263.821 -94.7672 271.225L143.609 140.225C147.336 147.007 150.669 154.508 153.328 162.685L-105.338 246.804ZM-93.4398 273.584C-94.715 271.369 -95.6598 269.58 -96.136 268.667C-96.3804 268.198 -96.5672 267.833 -96.6334 267.703C-96.666 267.639 -96.6948 267.583 -96.6838 267.604C-96.6838 267.604 -96.6469 267.677 -96.6031 267.762C-96.4666 268.029 -95.8048 269.327 -94.9212 270.951C-94.002 272.64 -92.5977 275.138 -90.7557 278.085L139.9 133.925C141.714 136.828 143.092 139.28 143.986 140.922C144.844 142.499 145.482 143.75 145.594 143.97C145.632 144.044 145.662 144.104 145.656 144.092C145.656 144.092 145.656 144.092 145.656 144.091C145.656 144.091 145.655 144.09 145.655 144.09C145.654 144.088 145.653 144.086 145.652 144.083C145.649 144.077 145.644 144.068 145.639 144.057C145.628 144.036 145.61 144.001 145.588 143.958C145.51 143.805 145.311 143.416 145.054 142.924C144.553 141.963 143.583 140.127 142.281 137.866L-93.4398 273.584ZM-90.1309 279.075C-84.92 287.255 -78.0437 296.204 -69.0374 304.897L119.862 109.191C128.224 117.262 134.546 125.511 139.275 132.935L-90.1309 279.075ZM-68.4924 305.421C-65.4465 308.328 -62.817 310.567 -61.0746 312.004C-60.1951 312.729 -59.4621 313.316 -58.9716 313.704C-58.502 314.076 -58.1276 314.368 -58.0634 314.418C-57.8726 314.566 -58.1597 314.343 -58.3733 314.175C-58.6598 313.951 -59.2003 313.525 -59.8741 312.981C-61.2093 311.903 -63.4409 310.061 -66.0923 307.641L117.309 106.773C114.625 104.322 112.361 102.453 110.993 101.348C110.302 100.791 109.745 100.352 109.442 100.114C109.287 99.9931 109.164 99.8975 109.11 99.8552C109.083 99.8338 109.06 99.8162 109.058 99.8146C109.049 99.8078 109.065 99.8202 109.082 99.8333C109.13 99.8703 109.487 100.149 109.94 100.508C110.414 100.883 111.131 101.456 111.994 102.168C113.704 103.578 116.302 105.79 119.317 108.668L-68.4924 305.421ZM-64.3722 309.185C-56.6706 315.98 -48.7202 321.502 -40.9339 325.951L94.0159 89.7893C101.136 93.8577 108.459 98.9373 115.589 105.229L-64.3722 309.185ZM-40.9339 325.951C-44.0495 324.171 -46.7612 322.457 -49.0391 320.934C-50.1796 320.171 -51.2215 319.45 -52.1578 318.785C-53.0933 318.121 -53.935 317.505 -54.6722 316.956C-55.4085 316.407 -56.0566 315.913 -56.6007 315.492C-57.1433 315.073 -57.6049 314.709 -57.9607 314.427C-58.1401 314.284 -58.2988 314.157 -58.4323 314.05C-58.5654 313.944 -58.6791 313.852 -58.7667 313.782C-58.8536 313.712 -58.9234 313.655 -58.965 313.621C-59.0029 313.591 -59.0351 313.565 -59.0279 313.57C-59.0278 313.57 -59.0253 313.573 -59.0224 313.575C-59.0193 313.577 -59.0144 313.581 -59.0085 313.586C-58.9969 313.596 -58.9782 313.611 -58.9553 313.629C-58.9105 313.665 -58.8374 313.725 -58.7473 313.797C-58.6564 313.871 -58.5395 313.965 -58.4031 314.074C-58.2664 314.184 -58.1044 314.313 -57.9218 314.458C-57.5594 314.746 -57.0913 315.114 -56.542 315.539C-55.9914 315.965 -55.3366 316.464 -54.5936 317.018C-53.8498 317.572 -53.0013 318.193 -52.0589 318.862C-51.1159 319.531 -50.067 320.258 -48.9195 321.025C-46.6277 322.558 -43.9018 324.28 -40.7714 326.069L94.1784 89.907C97.294 91.6873 100.006 93.4009 102.284 94.9243C103.424 95.687 104.466 96.4088 105.402 97.0735C106.338 97.7377 107.18 98.3532 107.917 98.9024C108.653 99.451 109.301 99.9456 109.845 100.366C110.388 100.786 110.849 101.149 111.205 101.432C111.385 101.574 111.543 101.701 111.677 101.808C111.81 101.915 111.924 102.006 112.011 102.077C112.098 102.147 112.168 102.203 112.21 102.237C112.247 102.268 112.28 102.294 112.272 102.288C112.272 102.288 112.27 102.286 112.267 102.284C112.264 102.281 112.259 102.277 112.253 102.272C112.241 102.263 112.223 102.248 112.2 102.229C112.155 102.193 112.082 102.134 111.992 102.061C111.901 101.988 111.784 101.894 111.648 101.784C111.511 101.675 111.349 101.546 111.166 101.401C110.804 101.113 110.336 100.744 109.786 100.319C109.236 99.8936 108.581 99.394 107.838 98.8404C107.094 98.2862 106.246 97.6658 105.303 96.9968C104.36 96.3273 103.311 95.6006 102.164 94.8333C99.8722 93.3006 97.1463 91.5781 94.0159 89.7893L-40.9339 325.951ZM-36.2994 328.515L50.5702 373.924L176.576 132.871L89.7063 87.4615L-36.2994 328.515ZM50.1119 373.683C71.1132 384.763 93.88 390.036 116.167 390.036V118.036C136.672 118.036 157.657 122.889 177.034 133.112L50.1119 373.683ZM116.167 390.036C141.639 390.036 166.997 383.155 189.362 369.651L48.7741 136.802C69.3585 124.373 92.7056 118.036 116.167 118.036V390.036ZM189.497 369.57C231.914 343.893 257.768 297.93 257.768 248.434H-14.2318C-14.2318 202.855 9.57247 160.532 48.6396 136.883L189.497 369.57ZM257.768 248.434V208.627H-14.2318V248.434H257.768ZM121.768 344.627H163.551V72.6266H121.768V344.627ZM163.551 344.627C241.753 344.627 305.152 281.228 305.152 203.025H33.1522C33.1522 131.006 91.5319 72.6266 163.551 72.6266V344.627ZM305.152 203.025V128H33.1522V203.025H305.152ZM305.152 128C305.152 49.7974 241.754 -13.6016 163.551 -13.6016V258.398C91.5317 258.398 33.1522 200.018 33.1522 128H305.152ZM163.551 -13.6016C85.348 -13.6016 21.949 49.7969 21.949 128H293.949C293.949 200.019 235.569 258.398 163.551 258.398V-13.6016ZM21.949 128V197.423H293.949V128H21.949ZM157.949 61.4234H121.768V333.423H157.949V61.4234ZM257.768 197.423V52.975H-14.2318V197.423H257.768ZM257.768 52.975C257.768 0.253936 228.467 -48.172 181.619 -72.5897L55.9011 168.614C12.7503 146.123 -14.2318 101.523 -14.2318 52.975H257.768ZM181.765 -72.5134L115.109 -107.358L-10.9011 133.693L55.7551 168.537L181.765 -72.5134ZM52.1039 149.167H157.949V-122.833H52.1039V149.167ZM21.949 13.1672V80.6441H293.949V13.1672H21.949ZM21.949 80.6441C21.949 158.847 85.348 222.246 163.551 222.246V-49.7543C235.569 -49.7543 293.949 8.62518 293.949 80.6441H21.949ZM173.568 118.659L97.9012 79.1066L-28.104 320.16L47.5625 359.713L173.568 118.659ZM170.899 199.633V16.8138H-101.101V199.633H170.899ZM-28.104 137.34L47.5625 176.893L173.568 -64.1599L97.9012 -103.713L-28.104 137.34ZM-25.435 56.3667V239.186H246.565V56.3667H-25.435Z" fill="#E0E0E0" mask="url(#path-2-inside-1_0_1)"/>
<path d="M226.703 110.898H135.103C132.011 110.898 129.501 108.389 129.501 105.297C129.501 102.205 132.011 99.6951 135.103 99.6951H226.703C229.795 99.6951 232.305 102.205 232.305 105.297C232.305 108.389 229.798 110.898 226.703 110.898Z" fill="#E0E0E0"/>
</svg>
