<svg width="40" height="40" viewBox="0 0 40 40" fill="none" xmlns="http://www.w3.org/2000/svg">
<g clip-path="url(#clip0_0_1)">
<path d="M19.398 0.00909816C8.3573 0.3416 -0.323397 9.56139 0.00910469 20.6021C0.341606 31.6428 9.5614 40.3235 20.6021 39.991C31.6428 39.6585 40.3235 30.4387 39.991 19.398C39.6585 8.3573 30.4387 -0.323404 19.398 0.00909816Z" fill="black"/>
<path d="M26.5324 21.2795L18.3147 21.5269L18.2466 19.267L26.4643 19.0196L26.3622 15.6299L31.6343 19.9949L26.6344 24.6693L26.5324 21.2795ZM27.3214 13.3391L24.5397 13.4228C23.319 12.3079 21.8337 11.6022 20.262 11.3905C18.6904 11.1787 17.0991 11.4699 15.6793 12.229C14.2594 12.9882 13.0712 14.183 12.2574 15.6702C11.4435 17.1575 11.0384 18.8739 11.0908 20.6135C11.1431 22.3531 11.6507 24.042 12.5526 25.4775C13.4545 26.9131 14.7124 28.0343 16.1754 28.7067C17.6384 29.379 19.2443 29.5739 20.8003 29.268C22.3564 28.9621 23.7965 28.1682 24.9479 26.9819L27.7297 26.8982C26.8159 28.3312 25.6097 29.5083 24.2068 30.3358C22.8039 31.1634 21.2431 31.6186 19.6481 31.6653C13.9749 31.8361 9.22375 26.9159 9.03583 20.6754C8.84792 14.4348 13.2944 9.23763 18.9677 9.06685C20.5625 9.01746 22.148 9.37798 23.5981 10.1196C25.0483 10.8612 26.3231 11.9635 27.3214 13.3391Z" fill="white"/>
</g>
<defs>
<clipPath id="clip0_0_1">
<rect width="40" height="40" fill="white"/>
</clipPath>
</defs>
</svg>
