<svg width="40" height="40" viewBox="0 0 40 40" fill="none" xmlns="http://www.w3.org/2000/svg">
<path d="M20 40C31.0457 40 40 31.0457 40 20C40 8.9543 31.0457 0 20 0C8.9543 0 0 8.9543 0 20C0 31.0457 8.9543 40 20 40Z" fill="black"/>
<path d="M17.8169 8.80005C12.8319 8.80005 8.79999 12.7395 8.79999 17.6103C8.79999 22.4811 12.8319 26.4206 17.8169 26.4206C19.5967 26.4206 21.2439 25.9104 22.6403 25.044L29.1544 31.4087L31.4087 29.2061L24.9775 22.9386C26.1335 21.4567 26.8339 19.6206 26.8339 17.6103C26.8339 12.7395 22.802 8.80005 17.8169 8.80005ZM17.8169 10.873C21.6355 10.873 24.7122 13.8793 24.7122 17.6103C24.7122 21.3414 21.6355 24.3476 17.8169 24.3476C13.9984 24.3476 10.9216 21.3414 10.9216 17.6103C10.9216 13.8793 13.9984 10.873 17.8169 10.873Z" fill="white"/>
</svg>
