<svg width="40" height="40" viewBox="0 0 40 40" fill="none" xmlns="http://www.w3.org/2000/svg">
<path d="M20 40C31.0457 40 40 31.0457 40 20C40 8.9543 31.0457 0 20 0C8.9543 0 0 8.9543 0 20C0 31.0457 8.9543 40 20 40Z" fill="black"/>
<path d="M17.3172 8.69568L16.751 11.5483C15.8067 11.8991 14.9337 12.3892 14.167 13.0077L11.3785 12.0627L8.69568 16.633L10.9269 18.5384C10.8478 19.0154 10.7965 19.5011 10.7965 20C10.7965 20.499 10.8478 20.9846 10.9269 21.4617L8.69568 23.3671L11.3785 27.9373L14.167 26.9924C14.9337 27.6108 15.8067 28.101 16.751 28.4518L17.3172 31.3044H22.6829L23.2491 28.4518C24.1933 28.101 25.0664 27.6108 25.8331 26.9924L28.6215 27.9373L31.3044 23.3671L29.0732 21.4617C29.1523 20.9846 29.2035 20.499 29.2035 20C29.2035 19.5011 29.1523 19.0154 29.0732 18.5384L31.3044 16.633L28.6215 12.0627L25.8331 13.0077C25.0664 12.3892 24.1933 11.8991 23.2491 11.5483L22.6829 8.69568H17.3172ZM20 15.4783C22.5413 15.4783 24.6018 17.5029 24.6018 20C24.6018 22.4972 22.5413 24.5218 20 24.5218C17.4587 24.5218 15.3983 22.4972 15.3983 20C15.3983 17.5029 17.4587 15.4783 20 15.4783Z" fill="white"/>
</svg>
