<svg width="64" height="64" viewBox="0 0 64 64" fill="none" xmlns="http://www.w3.org/2000/svg">
<path fill-rule="evenodd" clip-rule="evenodd" d="M24.825 7.5C38.5263 7.5 49.65 18.6237 49.65 32.325C49.65 46.0263 38.5263 57.15 24.825 57.15C11.1237 57.15 0 46.0263 0 32.325C0 18.6237 11.1237 7.5 24.825 7.5ZM20.4524 45.5286C31.4378 45.5286 37.4443 36.4258 37.4443 28.5368C37.4443 28.2767 37.4443 28.0166 37.4319 27.7688C38.5961 26.9267 39.6117 25.874 40.4167 24.6727C39.3516 25.1433 38.1998 25.4653 36.9861 25.6139C38.2246 24.8708 39.1658 23.7067 39.6117 22.3072C38.4598 22.9884 37.1843 23.4837 35.8219 23.7562C34.732 22.592 33.1839 21.8738 31.4625 21.8738C28.1681 21.8738 25.493 24.5489 25.493 27.8432C25.493 28.3138 25.5426 28.772 25.654 29.2055C20.6878 28.9578 16.2911 26.58 13.3436 22.9636C12.8358 23.8429 12.5386 24.8708 12.5386 25.9607C12.5386 28.0289 13.5913 29.8619 15.2013 30.9269C14.2229 30.9022 13.3064 30.6297 12.5014 30.1839V30.2582C12.5014 33.1563 14.5572 35.5588 17.2943 36.1162C16.799 36.2524 16.2664 36.3268 15.7215 36.3268C15.3375 36.3268 14.966 36.2896 14.5945 36.2153C15.3499 38.5931 17.5544 40.3147 20.1676 40.3641C18.1241 41.9619 15.5481 42.9155 12.7491 42.9155C12.2661 42.9155 11.7955 42.8907 11.3249 42.8288C13.9381 44.5378 17.0838 45.5286 20.4524 45.5286Z" fill="#432818"/>
</svg>
